%TF.GenerationSoftware,KiCad,Pcbnew,6.0.2+dfsg-1*%
%TF.CreationDate,2024-11-06T15:41:13+05:30*%
%TF.ProjectId,opamp-hadi,6f70616d-702d-4686-9164-692e6b696361,rev?*%
%TF.SameCoordinates,Original*%
%TF.FileFunction,Legend,Top*%
%TF.FilePolarity,Positive*%
%FSLAX46Y46*%
G04 Gerber Fmt 4.6, Leading zero omitted, Abs format (unit mm)*
G04 Created by KiCad (PCBNEW 6.0.2+dfsg-1) date 2024-11-06 15:41:13*
%MOMM*%
%LPD*%
G01*
G04 APERTURE LIST*
%ADD10C,0.125000*%
%ADD11C,0.200000*%
%ADD12C,0.150000*%
%ADD13C,0.120000*%
G04 APERTURE END LIST*
D10*
X125853333Y-75156190D02*
X125853333Y-74656190D01*
X126043809Y-74656190D01*
X126091428Y-74680000D01*
X126115238Y-74703809D01*
X126139047Y-74751428D01*
X126139047Y-74822857D01*
X126115238Y-74870476D01*
X126091428Y-74894285D01*
X126043809Y-74918095D01*
X125853333Y-74918095D01*
X126424761Y-75156190D02*
X126377142Y-75132380D01*
X126353333Y-75108571D01*
X126329523Y-75060952D01*
X126329523Y-74918095D01*
X126353333Y-74870476D01*
X126377142Y-74846666D01*
X126424761Y-74822857D01*
X126496190Y-74822857D01*
X126543809Y-74846666D01*
X126567619Y-74870476D01*
X126591428Y-74918095D01*
X126591428Y-75060952D01*
X126567619Y-75108571D01*
X126543809Y-75132380D01*
X126496190Y-75156190D01*
X126424761Y-75156190D01*
X126758095Y-74822857D02*
X126853333Y-75156190D01*
X126948571Y-74918095D01*
X127043809Y-75156190D01*
X127139047Y-74822857D01*
X127520000Y-75132380D02*
X127472380Y-75156190D01*
X127377142Y-75156190D01*
X127329523Y-75132380D01*
X127305714Y-75084761D01*
X127305714Y-74894285D01*
X127329523Y-74846666D01*
X127377142Y-74822857D01*
X127472380Y-74822857D01*
X127520000Y-74846666D01*
X127543809Y-74894285D01*
X127543809Y-74941904D01*
X127305714Y-74989523D01*
X127758095Y-75156190D02*
X127758095Y-74822857D01*
X127758095Y-74918095D02*
X127781904Y-74870476D01*
X127805714Y-74846666D01*
X127853333Y-74822857D01*
X127900952Y-74822857D01*
X128424761Y-75132380D02*
X128496190Y-75156190D01*
X128615238Y-75156190D01*
X128662857Y-75132380D01*
X128686666Y-75108571D01*
X128710476Y-75060952D01*
X128710476Y-75013333D01*
X128686666Y-74965714D01*
X128662857Y-74941904D01*
X128615238Y-74918095D01*
X128520000Y-74894285D01*
X128472380Y-74870476D01*
X128448571Y-74846666D01*
X128424761Y-74799047D01*
X128424761Y-74751428D01*
X128448571Y-74703809D01*
X128472380Y-74680000D01*
X128520000Y-74656190D01*
X128639047Y-74656190D01*
X128710476Y-74680000D01*
X129139047Y-74822857D02*
X129139047Y-75156190D01*
X128924761Y-74822857D02*
X128924761Y-75084761D01*
X128948571Y-75132380D01*
X128996190Y-75156190D01*
X129067619Y-75156190D01*
X129115238Y-75132380D01*
X129139047Y-75108571D01*
X129377142Y-74822857D02*
X129377142Y-75322857D01*
X129377142Y-74846666D02*
X129424761Y-74822857D01*
X129520000Y-74822857D01*
X129567619Y-74846666D01*
X129591428Y-74870476D01*
X129615238Y-74918095D01*
X129615238Y-75060952D01*
X129591428Y-75108571D01*
X129567619Y-75132380D01*
X129520000Y-75156190D01*
X129424761Y-75156190D01*
X129377142Y-75132380D01*
X129829523Y-74822857D02*
X129829523Y-75322857D01*
X129829523Y-74846666D02*
X129877142Y-74822857D01*
X129972380Y-74822857D01*
X130020000Y-74846666D01*
X130043809Y-74870476D01*
X130067619Y-74918095D01*
X130067619Y-75060952D01*
X130043809Y-75108571D01*
X130020000Y-75132380D01*
X129972380Y-75156190D01*
X129877142Y-75156190D01*
X129829523Y-75132380D01*
X130353333Y-75156190D02*
X130305714Y-75132380D01*
X130281904Y-75084761D01*
X130281904Y-74656190D01*
X130496190Y-74822857D02*
X130615238Y-75156190D01*
X130734285Y-74822857D02*
X130615238Y-75156190D01*
X130567619Y-75275238D01*
X130543809Y-75299047D01*
X130496190Y-75322857D01*
X120269047Y-75950000D02*
X120221428Y-75926190D01*
X120150000Y-75926190D01*
X120078571Y-75950000D01*
X120030952Y-75997619D01*
X120007142Y-76045238D01*
X119983333Y-76140476D01*
X119983333Y-76211904D01*
X120007142Y-76307142D01*
X120030952Y-76354761D01*
X120078571Y-76402380D01*
X120150000Y-76426190D01*
X120197619Y-76426190D01*
X120269047Y-76402380D01*
X120292857Y-76378571D01*
X120292857Y-76211904D01*
X120197619Y-76211904D01*
X120507142Y-76426190D02*
X120507142Y-75926190D01*
X120792857Y-76426190D01*
X120792857Y-75926190D01*
X121030952Y-76426190D02*
X121030952Y-75926190D01*
X121150000Y-75926190D01*
X121221428Y-75950000D01*
X121269047Y-75997619D01*
X121292857Y-76045238D01*
X121316666Y-76140476D01*
X121316666Y-76211904D01*
X121292857Y-76307142D01*
X121269047Y-76354761D01*
X121221428Y-76402380D01*
X121150000Y-76426190D01*
X121030952Y-76426190D01*
D11*
X129235238Y-76257142D02*
X129844761Y-76257142D01*
D10*
%TO.C,J2*%
X117598095Y-76402380D02*
X117669523Y-76426190D01*
X117788571Y-76426190D01*
X117836190Y-76402380D01*
X117860000Y-76378571D01*
X117883809Y-76330952D01*
X117883809Y-76283333D01*
X117860000Y-76235714D01*
X117836190Y-76211904D01*
X117788571Y-76188095D01*
X117693333Y-76164285D01*
X117645714Y-76140476D01*
X117621904Y-76116666D01*
X117598095Y-76069047D01*
X117598095Y-76021428D01*
X117621904Y-75973809D01*
X117645714Y-75950000D01*
X117693333Y-75926190D01*
X117812380Y-75926190D01*
X117883809Y-75950000D01*
X118098095Y-76426190D02*
X118098095Y-75926190D01*
X118598095Y-75950000D02*
X118550476Y-75926190D01*
X118479047Y-75926190D01*
X118407619Y-75950000D01*
X118360000Y-75997619D01*
X118336190Y-76045238D01*
X118312380Y-76140476D01*
X118312380Y-76211904D01*
X118336190Y-76307142D01*
X118360000Y-76354761D01*
X118407619Y-76402380D01*
X118479047Y-76426190D01*
X118526666Y-76426190D01*
X118598095Y-76402380D01*
X118621904Y-76378571D01*
X118621904Y-76211904D01*
X118526666Y-76211904D01*
D12*
%TO.C,J1*%
X126695238Y-76257142D02*
X127304761Y-76257142D01*
X127000000Y-76561904D02*
X127000000Y-75952380D01*
D10*
%TO.C,U1*%
X123614761Y-80226190D02*
X123376666Y-80226190D01*
X123376666Y-79726190D01*
X123781428Y-80226190D02*
X123781428Y-79726190D01*
X123948095Y-80083333D01*
X124114761Y-79726190D01*
X124114761Y-80226190D01*
X124305238Y-79726190D02*
X124638571Y-79726190D01*
X124424285Y-80226190D01*
X125043333Y-79892857D02*
X125043333Y-80226190D01*
X124924285Y-79702380D02*
X124805238Y-80059523D01*
X125114761Y-80059523D01*
X125567142Y-80226190D02*
X125281428Y-80226190D01*
X125424285Y-80226190D02*
X125424285Y-79726190D01*
X125376666Y-79797619D01*
X125329047Y-79845238D01*
X125281428Y-79869047D01*
%TO.C,C1*%
X115516666Y-85258571D02*
X115492857Y-85282380D01*
X115421428Y-85306190D01*
X115373809Y-85306190D01*
X115302380Y-85282380D01*
X115254761Y-85234761D01*
X115230952Y-85187142D01*
X115207142Y-85091904D01*
X115207142Y-85020476D01*
X115230952Y-84925238D01*
X115254761Y-84877619D01*
X115302380Y-84830000D01*
X115373809Y-84806190D01*
X115421428Y-84806190D01*
X115492857Y-84830000D01*
X115516666Y-84853809D01*
X115992857Y-85306190D02*
X115707142Y-85306190D01*
X115850000Y-85306190D02*
X115850000Y-84806190D01*
X115802380Y-84877619D01*
X115754761Y-84925238D01*
X115707142Y-84949047D01*
%TO.C,R2*%
X131996666Y-80226190D02*
X131830000Y-79988095D01*
X131710952Y-80226190D02*
X131710952Y-79726190D01*
X131901428Y-79726190D01*
X131949047Y-79750000D01*
X131972857Y-79773809D01*
X131996666Y-79821428D01*
X131996666Y-79892857D01*
X131972857Y-79940476D01*
X131949047Y-79964285D01*
X131901428Y-79988095D01*
X131710952Y-79988095D01*
X132187142Y-79773809D02*
X132210952Y-79750000D01*
X132258571Y-79726190D01*
X132377619Y-79726190D01*
X132425238Y-79750000D01*
X132449047Y-79773809D01*
X132472857Y-79821428D01*
X132472857Y-79869047D01*
X132449047Y-79940476D01*
X132163333Y-80226190D01*
X132472857Y-80226190D01*
%TO.C,C2*%
X133296666Y-85258571D02*
X133272857Y-85282380D01*
X133201428Y-85306190D01*
X133153809Y-85306190D01*
X133082380Y-85282380D01*
X133034761Y-85234761D01*
X133010952Y-85187142D01*
X132987142Y-85091904D01*
X132987142Y-85020476D01*
X133010952Y-84925238D01*
X133034761Y-84877619D01*
X133082380Y-84830000D01*
X133153809Y-84806190D01*
X133201428Y-84806190D01*
X133272857Y-84830000D01*
X133296666Y-84853809D01*
X133487142Y-84853809D02*
X133510952Y-84830000D01*
X133558571Y-84806190D01*
X133677619Y-84806190D01*
X133725238Y-84830000D01*
X133749047Y-84853809D01*
X133772857Y-84901428D01*
X133772857Y-84949047D01*
X133749047Y-85020476D01*
X133463333Y-85306190D01*
X133772857Y-85306190D01*
%TO.C,RF1*%
X130542380Y-90386190D02*
X130375714Y-90148095D01*
X130256666Y-90386190D02*
X130256666Y-89886190D01*
X130447142Y-89886190D01*
X130494761Y-89910000D01*
X130518571Y-89933809D01*
X130542380Y-89981428D01*
X130542380Y-90052857D01*
X130518571Y-90100476D01*
X130494761Y-90124285D01*
X130447142Y-90148095D01*
X130256666Y-90148095D01*
X130923333Y-90124285D02*
X130756666Y-90124285D01*
X130756666Y-90386190D02*
X130756666Y-89886190D01*
X130994761Y-89886190D01*
X131447142Y-90386190D02*
X131161428Y-90386190D01*
X131304285Y-90386190D02*
X131304285Y-89886190D01*
X131256666Y-89957619D01*
X131209047Y-90005238D01*
X131161428Y-90029047D01*
%TO.C,R3*%
X118056666Y-90386190D02*
X117890000Y-90148095D01*
X117770952Y-90386190D02*
X117770952Y-89886190D01*
X117961428Y-89886190D01*
X118009047Y-89910000D01*
X118032857Y-89933809D01*
X118056666Y-89981428D01*
X118056666Y-90052857D01*
X118032857Y-90100476D01*
X118009047Y-90124285D01*
X117961428Y-90148095D01*
X117770952Y-90148095D01*
X118223333Y-89886190D02*
X118532857Y-89886190D01*
X118366190Y-90076666D01*
X118437619Y-90076666D01*
X118485238Y-90100476D01*
X118509047Y-90124285D01*
X118532857Y-90171904D01*
X118532857Y-90290952D01*
X118509047Y-90338571D01*
X118485238Y-90362380D01*
X118437619Y-90386190D01*
X118294761Y-90386190D01*
X118247142Y-90362380D01*
X118223333Y-90338571D01*
%TO.C,R1*%
X114216666Y-81506190D02*
X114050000Y-81268095D01*
X113930952Y-81506190D02*
X113930952Y-81006190D01*
X114121428Y-81006190D01*
X114169047Y-81030000D01*
X114192857Y-81053809D01*
X114216666Y-81101428D01*
X114216666Y-81172857D01*
X114192857Y-81220476D01*
X114169047Y-81244285D01*
X114121428Y-81268095D01*
X113930952Y-81268095D01*
X114692857Y-81506190D02*
X114407142Y-81506190D01*
X114550000Y-81506190D02*
X114550000Y-81006190D01*
X114502380Y-81077619D01*
X114454761Y-81125238D01*
X114407142Y-81149047D01*
D13*
%TO.C,J2*%
X119320000Y-77680000D02*
X121380000Y-77680000D01*
X118320000Y-79800000D02*
X117260000Y-79800000D01*
X117260000Y-79800000D02*
X117260000Y-78740000D01*
X119320000Y-79800000D02*
X119320000Y-77680000D01*
X121380000Y-79800000D02*
X121380000Y-77680000D01*
X119320000Y-79800000D02*
X121380000Y-79800000D01*
%TO.C,J1*%
X128540000Y-77680000D02*
X130600000Y-77680000D01*
X127540000Y-79800000D02*
X126480000Y-79800000D01*
X126480000Y-79800000D02*
X126480000Y-78740000D01*
X128540000Y-79800000D02*
X128540000Y-77680000D01*
X130600000Y-79800000D02*
X130600000Y-77680000D01*
X128540000Y-79800000D02*
X130600000Y-79800000D01*
%TO.C,U1*%
X124460000Y-81260000D02*
X121010000Y-81260000D01*
X124460000Y-86380000D02*
X126410000Y-86380000D01*
X124460000Y-81260000D02*
X126410000Y-81260000D01*
X124460000Y-86380000D02*
X122510000Y-86380000D01*
%TO.C,C1*%
X118401252Y-84345000D02*
X117878748Y-84345000D01*
X118401252Y-85815000D02*
X117878748Y-85815000D01*
%TO.C,R2*%
X131567064Y-83450000D02*
X130112936Y-83450000D01*
X131567064Y-81630000D02*
X130112936Y-81630000D01*
%TO.C,C2*%
X131101252Y-84345000D02*
X130578748Y-84345000D01*
X131101252Y-85815000D02*
X130578748Y-85815000D01*
%TO.C,RF1*%
X131567064Y-86710000D02*
X130112936Y-86710000D01*
X131567064Y-88530000D02*
X130112936Y-88530000D01*
%TO.C,R3*%
X118867064Y-86710000D02*
X117412936Y-86710000D01*
X118867064Y-88530000D02*
X117412936Y-88530000D01*
%TO.C,R1*%
X118867064Y-83450000D02*
X117412936Y-83450000D01*
X118867064Y-81630000D02*
X117412936Y-81630000D01*
%TD*%
M02*
