%TF.GenerationSoftware,KiCad,Pcbnew,6.0.2+dfsg-1*%
%TF.CreationDate,2024-11-06T13:42:38+05:30*%
%TF.ProjectId,opamp-hadi,6f70616d-702d-4686-9164-692e6b696361,rev?*%
%TF.SameCoordinates,Original*%
%TF.FileFunction,Copper,L1,Top*%
%TF.FilePolarity,Positive*%
%FSLAX46Y46*%
G04 Gerber Fmt 4.6, Leading zero omitted, Abs format (unit mm)*
G04 Created by KiCad (PCBNEW 6.0.2+dfsg-1) date 2024-11-06 13:42:38*
%MOMM*%
%LPD*%
G01*
G04 APERTURE LIST*
G04 Aperture macros list*
%AMRoundRect*
0 Rectangle with rounded corners*
0 $1 Rounding radius*
0 $2 $3 $4 $5 $6 $7 $8 $9 X,Y pos of 4 corners*
0 Add a 4 corners polygon primitive as box body*
4,1,4,$2,$3,$4,$5,$6,$7,$8,$9,$2,$3,0*
0 Add four circle primitives for the rounded corners*
1,1,$1+$1,$2,$3*
1,1,$1+$1,$4,$5*
1,1,$1+$1,$6,$7*
1,1,$1+$1,$8,$9*
0 Add four rect primitives between the rounded corners*
20,1,$1+$1,$2,$3,$4,$5,0*
20,1,$1+$1,$4,$5,$6,$7,0*
20,1,$1+$1,$6,$7,$8,$9,0*
20,1,$1+$1,$8,$9,$2,$3,0*%
G04 Aperture macros list end*
%TA.AperFunction,SMDPad,CuDef*%
%ADD10RoundRect,0.150000X-0.825000X-0.150000X0.825000X-0.150000X0.825000X0.150000X-0.825000X0.150000X0*%
%TD*%
%TA.AperFunction,SMDPad,CuDef*%
%ADD11RoundRect,0.250000X0.250000X0.475000X-0.250000X0.475000X-0.250000X-0.475000X0.250000X-0.475000X0*%
%TD*%
%TA.AperFunction,SMDPad,CuDef*%
%ADD12RoundRect,0.250000X0.312500X0.625000X-0.312500X0.625000X-0.312500X-0.625000X0.312500X-0.625000X0*%
%TD*%
%TA.AperFunction,ViaPad*%
%ADD13C,0.800000*%
%TD*%
%TA.AperFunction,Conductor*%
%ADD14C,0.250000*%
%TD*%
G04 APERTURE END LIST*
D10*
%TO.P,U1,1,NULL*%
%TO.N,unconnected-(U1-Pad1)*%
X121985000Y-81915000D03*
%TO.P,U1,2,-*%
%TO.N,Net-(R3-Pad1)*%
X121985000Y-83185000D03*
%TO.P,U1,3,+*%
%TO.N,Net-(C1-Pad2)*%
X121985000Y-84455000D03*
%TO.P,U1,4,V-*%
%TO.N,GND*%
X121985000Y-85725000D03*
%TO.P,U1,5,NULL*%
%TO.N,unconnected-(U1-Pad5)*%
X126935000Y-85725000D03*
%TO.P,U1,6*%
%TO.N,Net-(R1-Pad2)*%
X126935000Y-84455000D03*
%TO.P,U1,7,V+*%
%TO.N,VCC*%
X126935000Y-83185000D03*
%TO.P,U1,8,NC*%
%TO.N,unconnected-(U1-Pad8)*%
X126935000Y-81915000D03*
%TD*%
D11*
%TO.P,C1,1*%
%TO.N,Net-(C1-Pad1)*%
X119090000Y-85080000D03*
%TO.P,C1,2*%
%TO.N,Net-(C1-Pad2)*%
X117190000Y-85080000D03*
%TD*%
D12*
%TO.P,R2,1*%
%TO.N,Net-(C1-Pad2)*%
X132302500Y-82540000D03*
%TO.P,R2,2*%
%TO.N,GND*%
X129377500Y-82540000D03*
%TD*%
D11*
%TO.P,C2,1*%
%TO.N,Net-(C1-Pad2)*%
X131790000Y-85080000D03*
%TO.P,C2,2*%
%TO.N,GND*%
X129890000Y-85080000D03*
%TD*%
D12*
%TO.P,RF,1*%
%TO.N,Net-(R1-Pad2)*%
X132302500Y-87620000D03*
%TO.P,RF,2*%
%TO.N,Net-(R3-Pad1)*%
X129377500Y-87620000D03*
%TD*%
%TO.P,R3,1*%
%TO.N,Net-(R3-Pad1)*%
X119602500Y-87620000D03*
%TO.P,R3,2*%
%TO.N,GND*%
X116677500Y-87620000D03*
%TD*%
%TO.P,R1,1*%
%TO.N,Net-(C1-Pad1)*%
X119602500Y-82540000D03*
%TO.P,R1,2*%
%TO.N,Net-(R1-Pad2)*%
X116677500Y-82540000D03*
%TD*%
D13*
%TO.N,Net-(C1-Pad1)*%
X119380000Y-83105980D03*
X119090000Y-85080000D03*
%TO.N,GND*%
X129890000Y-85080000D03*
X127000000Y-86624500D03*
%TO.N,Net-(R1-Pad2)*%
X128508532Y-86353130D03*
X126935000Y-84355020D03*
%TD*%
D14*
%TO.N,Net-(C1-Pad1)*%
X119602500Y-82883480D02*
X119380000Y-83105980D01*
X119602500Y-82540000D02*
X119602500Y-82883480D01*
%TO.N,GND*%
X122884500Y-86624500D02*
X127000000Y-86624500D01*
X121985000Y-85725000D02*
X122884500Y-86624500D01*
X129377500Y-84567500D02*
X129890000Y-85080000D01*
X116677500Y-87620000D02*
X117877020Y-88819520D01*
X117877020Y-88819520D02*
X120152973Y-88819520D01*
X120152973Y-88819520D02*
X121985000Y-86987493D01*
X121985000Y-86987493D02*
X121985000Y-85725000D01*
X129377500Y-82540000D02*
X129377500Y-84567500D01*
%TO.N,Net-(C1-Pad2)*%
X118239520Y-86129520D02*
X119610480Y-86129520D01*
X132302500Y-82540000D02*
X132302500Y-84567500D01*
X129309520Y-86129520D02*
X130740480Y-86129520D01*
X121285000Y-84455000D02*
X121985000Y-84455000D01*
X122609520Y-85079520D02*
X128259520Y-85079520D01*
X132302500Y-84567500D02*
X131790000Y-85080000D01*
X121985000Y-84455000D02*
X122609520Y-85079520D01*
X117190000Y-85080000D02*
X118239520Y-86129520D01*
X128259520Y-85079520D02*
X129309520Y-86129520D01*
X119610480Y-86129520D02*
X121285000Y-84455000D01*
X130740480Y-86129520D02*
X131790000Y-85080000D01*
%TO.N,Net-(R1-Pad2)*%
X128490480Y-88482973D02*
X128490480Y-86371182D01*
X126310480Y-83830480D02*
X126935000Y-84455000D01*
X117967980Y-83830480D02*
X126310480Y-83830480D01*
X132302500Y-87620000D02*
X131102980Y-88819520D01*
X128490480Y-86371182D02*
X128508532Y-86353130D01*
X128827027Y-88819520D02*
X128490480Y-88482973D01*
X116677500Y-82540000D02*
X117967980Y-83830480D01*
X131102980Y-88819520D02*
X128827027Y-88819520D01*
%TO.N,Net-(R3-Pad1)*%
X116702027Y-86129520D02*
X114425020Y-83852513D01*
X120685480Y-81568448D02*
X120685480Y-82261552D01*
X119602500Y-87620000D02*
X119094283Y-87620000D01*
X121608928Y-83185000D02*
X121985000Y-83185000D01*
X130552507Y-87620000D02*
X131812507Y-86360000D01*
X131812507Y-86360000D02*
X132080000Y-86360000D01*
X116187507Y-81280000D02*
X120397032Y-81280000D01*
X129377500Y-87620000D02*
X130552507Y-87620000D01*
X120685480Y-82261552D02*
X121608928Y-83185000D01*
X134494980Y-83945020D02*
X134494980Y-82982487D01*
X114425020Y-83852513D02*
X114425020Y-83042487D01*
X120397032Y-81280000D02*
X120685480Y-81568448D01*
X114425020Y-83042487D02*
X116187507Y-81280000D01*
X134494980Y-82982487D02*
X132792493Y-81280000D01*
X132080000Y-86360000D02*
X134494980Y-83945020D01*
X132792493Y-81280000D02*
X120973928Y-81280000D01*
X117603803Y-86129520D02*
X116702027Y-86129520D01*
X120973928Y-81280000D02*
X120685480Y-81568448D01*
X119094283Y-87620000D02*
X117603803Y-86129520D01*
%TD*%
%TA.AperFunction,Conductor*%
%TO.N,GND*%
G36*
X115016512Y-85340363D02*
G01*
X115023095Y-85346492D01*
X115893408Y-86216805D01*
X115927434Y-86279117D01*
X115922369Y-86349932D01*
X115889367Y-86395321D01*
X115890965Y-86396917D01*
X115771261Y-86516829D01*
X115762249Y-86528240D01*
X115677184Y-86666243D01*
X115671037Y-86679424D01*
X115619862Y-86833710D01*
X115616995Y-86847086D01*
X115607328Y-86941438D01*
X115607000Y-86947855D01*
X115607000Y-87347885D01*
X115611475Y-87363124D01*
X115612865Y-87364329D01*
X115620548Y-87366000D01*
X117729884Y-87366000D01*
X117745123Y-87361525D01*
X117746923Y-87359448D01*
X117806650Y-87321064D01*
X117877646Y-87321064D01*
X117931243Y-87352865D01*
X118494595Y-87916217D01*
X118528621Y-87978529D01*
X118531500Y-88005312D01*
X118531500Y-88295400D01*
X118531837Y-88298646D01*
X118531837Y-88298650D01*
X118541752Y-88394206D01*
X118542474Y-88401166D01*
X118598450Y-88568946D01*
X118691522Y-88719348D01*
X118816697Y-88844305D01*
X118822927Y-88848145D01*
X118822928Y-88848146D01*
X118960288Y-88932816D01*
X118967262Y-88937115D01*
X119012290Y-88952050D01*
X119128611Y-88990632D01*
X119128613Y-88990632D01*
X119135139Y-88992797D01*
X119141975Y-88993497D01*
X119141978Y-88993498D01*
X119185031Y-88997909D01*
X119239600Y-89003500D01*
X119965400Y-89003500D01*
X119968646Y-89003163D01*
X119968650Y-89003163D01*
X120064308Y-88993238D01*
X120064312Y-88993237D01*
X120071166Y-88992526D01*
X120077702Y-88990345D01*
X120077704Y-88990345D01*
X120209806Y-88946272D01*
X120238946Y-88936550D01*
X120389348Y-88843478D01*
X120514305Y-88718303D01*
X120593103Y-88590470D01*
X120603275Y-88573968D01*
X120603276Y-88573966D01*
X120607115Y-88567738D01*
X120652532Y-88430809D01*
X120660632Y-88406389D01*
X120660632Y-88406387D01*
X120662797Y-88399861D01*
X120673500Y-88295400D01*
X120673500Y-86944600D01*
X120667249Y-86884353D01*
X120663238Y-86845692D01*
X120663237Y-86845688D01*
X120662526Y-86838834D01*
X120626353Y-86730409D01*
X120608868Y-86678002D01*
X120606550Y-86671054D01*
X120513478Y-86520652D01*
X120479123Y-86486357D01*
X120403442Y-86410807D01*
X120369363Y-86348524D01*
X120374366Y-86277704D01*
X120403365Y-86232539D01*
X120416458Y-86219446D01*
X120478770Y-86185420D01*
X120549585Y-86190485D01*
X120606421Y-86233032D01*
X120614007Y-86244403D01*
X120631909Y-86274675D01*
X120641551Y-86287104D01*
X120747896Y-86393449D01*
X120760322Y-86403089D01*
X120889779Y-86479648D01*
X120904210Y-86485893D01*
X121050065Y-86528269D01*
X121062667Y-86530570D01*
X121091084Y-86532807D01*
X121096014Y-86533000D01*
X121712885Y-86533000D01*
X121728124Y-86528525D01*
X121729329Y-86527135D01*
X121731000Y-86519452D01*
X121731000Y-85597000D01*
X121751002Y-85528879D01*
X121804658Y-85482386D01*
X121857000Y-85471000D01*
X122051087Y-85471000D01*
X122119208Y-85491002D01*
X122137340Y-85505150D01*
X122167187Y-85533178D01*
X122170029Y-85535933D01*
X122189751Y-85555655D01*
X122192879Y-85558081D01*
X122195852Y-85560703D01*
X122194609Y-85562113D01*
X122231775Y-85613529D01*
X122239000Y-85655583D01*
X122239000Y-86514884D01*
X122243475Y-86530123D01*
X122244865Y-86531328D01*
X122252548Y-86532999D01*
X122873984Y-86532999D01*
X122878920Y-86532805D01*
X122907336Y-86530570D01*
X122919931Y-86528270D01*
X123065790Y-86485893D01*
X123080221Y-86479648D01*
X123209678Y-86403089D01*
X123222104Y-86393449D01*
X123328449Y-86287104D01*
X123338089Y-86274678D01*
X123414648Y-86145221D01*
X123420893Y-86130790D01*
X123463269Y-85984935D01*
X123465570Y-85972333D01*
X123467807Y-85943915D01*
X123468000Y-85938987D01*
X123468000Y-85839020D01*
X123488002Y-85770899D01*
X123541658Y-85724406D01*
X123594000Y-85713020D01*
X125325500Y-85713020D01*
X125393621Y-85733022D01*
X125440114Y-85786678D01*
X125451500Y-85839020D01*
X125451500Y-85941502D01*
X125451693Y-85943950D01*
X125451693Y-85943958D01*
X125453927Y-85972333D01*
X125454438Y-85978831D01*
X125456233Y-85985008D01*
X125498586Y-86130790D01*
X125500855Y-86138601D01*
X125504892Y-86145427D01*
X125581509Y-86274980D01*
X125581511Y-86274983D01*
X125585547Y-86281807D01*
X125703193Y-86399453D01*
X125710017Y-86403489D01*
X125710020Y-86403491D01*
X125817589Y-86467107D01*
X125846399Y-86484145D01*
X125854010Y-86486356D01*
X125854012Y-86486357D01*
X125906231Y-86501528D01*
X126006169Y-86530562D01*
X126012574Y-86531066D01*
X126012579Y-86531067D01*
X126041042Y-86533307D01*
X126041050Y-86533307D01*
X126043498Y-86533500D01*
X127520340Y-86533500D01*
X127588461Y-86553502D01*
X127634954Y-86607158D01*
X127640173Y-86620563D01*
X127674005Y-86724686D01*
X127677308Y-86730408D01*
X127677309Y-86730409D01*
X127740035Y-86839053D01*
X127769492Y-86890074D01*
X127821519Y-86947855D01*
X127824616Y-86951295D01*
X127855333Y-87015303D01*
X127856980Y-87035606D01*
X127856980Y-88404206D01*
X127856453Y-88415389D01*
X127854778Y-88422882D01*
X127855027Y-88430808D01*
X127855027Y-88430809D01*
X127856918Y-88490959D01*
X127856980Y-88494918D01*
X127856980Y-88522829D01*
X127857477Y-88526763D01*
X127857477Y-88526764D01*
X127857485Y-88526829D01*
X127858418Y-88538666D01*
X127859807Y-88582862D01*
X127865458Y-88602312D01*
X127869467Y-88621673D01*
X127872006Y-88641770D01*
X127874925Y-88649141D01*
X127874925Y-88649143D01*
X127888284Y-88682885D01*
X127892129Y-88694115D01*
X127897650Y-88713120D01*
X127904462Y-88736566D01*
X127908495Y-88743385D01*
X127908497Y-88743390D01*
X127914773Y-88754001D01*
X127923468Y-88771749D01*
X127930928Y-88790590D01*
X127935590Y-88797006D01*
X127935590Y-88797007D01*
X127956916Y-88826360D01*
X127963432Y-88836280D01*
X127970450Y-88848146D01*
X127985938Y-88874335D01*
X128000259Y-88888656D01*
X128013099Y-88903689D01*
X128025008Y-88920080D01*
X128031114Y-88925131D01*
X128059085Y-88948271D01*
X128067864Y-88956261D01*
X128323370Y-89211767D01*
X128330914Y-89220057D01*
X128335027Y-89226538D01*
X128340804Y-89231963D01*
X128384694Y-89273178D01*
X128387536Y-89275933D01*
X128407257Y-89295654D01*
X128410452Y-89298132D01*
X128419474Y-89305838D01*
X128451706Y-89336106D01*
X128458655Y-89339926D01*
X128469459Y-89345866D01*
X128485983Y-89356719D01*
X128501986Y-89369133D01*
X128542570Y-89386696D01*
X128553200Y-89391903D01*
X128591967Y-89413215D01*
X128599644Y-89415186D01*
X128599649Y-89415188D01*
X128611585Y-89418252D01*
X128630293Y-89424657D01*
X128648882Y-89432701D01*
X128656707Y-89433940D01*
X128656709Y-89433941D01*
X128692546Y-89439617D01*
X128704167Y-89442024D01*
X128735986Y-89450193D01*
X128746997Y-89453020D01*
X128767258Y-89453020D01*
X128786967Y-89454571D01*
X128806970Y-89457739D01*
X128814862Y-89456993D01*
X128820089Y-89456499D01*
X128850981Y-89453579D01*
X128862838Y-89453020D01*
X131024213Y-89453020D01*
X131035396Y-89453547D01*
X131042889Y-89455222D01*
X131050815Y-89454973D01*
X131050816Y-89454973D01*
X131110966Y-89453082D01*
X131114925Y-89453020D01*
X131142836Y-89453020D01*
X131146771Y-89452523D01*
X131146836Y-89452515D01*
X131158673Y-89451582D01*
X131190931Y-89450568D01*
X131194950Y-89450442D01*
X131202869Y-89450193D01*
X131222323Y-89444541D01*
X131241680Y-89440533D01*
X131253910Y-89438988D01*
X131253911Y-89438988D01*
X131261777Y-89437994D01*
X131269148Y-89435075D01*
X131269150Y-89435075D01*
X131302892Y-89421716D01*
X131314122Y-89417871D01*
X131348963Y-89407749D01*
X131348964Y-89407749D01*
X131356573Y-89405538D01*
X131363392Y-89401505D01*
X131363397Y-89401503D01*
X131374008Y-89395227D01*
X131391756Y-89386532D01*
X131410597Y-89379072D01*
X131430967Y-89364273D01*
X131446367Y-89353084D01*
X131456287Y-89346568D01*
X131487515Y-89328100D01*
X131487518Y-89328098D01*
X131494342Y-89324062D01*
X131508663Y-89309741D01*
X131523697Y-89296900D01*
X131525412Y-89295654D01*
X131540087Y-89284992D01*
X131568278Y-89250915D01*
X131576268Y-89242136D01*
X131784139Y-89034265D01*
X131846451Y-89000239D01*
X131886077Y-88998016D01*
X131939600Y-89003500D01*
X132665400Y-89003500D01*
X132668646Y-89003163D01*
X132668650Y-89003163D01*
X132764308Y-88993238D01*
X132764312Y-88993237D01*
X132771166Y-88992526D01*
X132777702Y-88990345D01*
X132777704Y-88990345D01*
X132909806Y-88946272D01*
X132938946Y-88936550D01*
X133089348Y-88843478D01*
X133214305Y-88718303D01*
X133293103Y-88590470D01*
X133303275Y-88573968D01*
X133303276Y-88573966D01*
X133307115Y-88567738D01*
X133352532Y-88430809D01*
X133360632Y-88406389D01*
X133360632Y-88406387D01*
X133362797Y-88399861D01*
X133373500Y-88295400D01*
X133373500Y-86944600D01*
X133367249Y-86884353D01*
X133363238Y-86845692D01*
X133363237Y-86845688D01*
X133362526Y-86838834D01*
X133326353Y-86730409D01*
X133308868Y-86678002D01*
X133306550Y-86671054D01*
X133213478Y-86520652D01*
X133179123Y-86486357D01*
X133103442Y-86410807D01*
X133069363Y-86348524D01*
X133074366Y-86277704D01*
X133103365Y-86232539D01*
X133896905Y-85438999D01*
X133959217Y-85404973D01*
X134030032Y-85410038D01*
X134086868Y-85452585D01*
X134111679Y-85519105D01*
X134112000Y-85528094D01*
X134112000Y-90806000D01*
X134091998Y-90874121D01*
X134038342Y-90920614D01*
X133986000Y-90932000D01*
X114934000Y-90932000D01*
X114865879Y-90911998D01*
X114819386Y-90858342D01*
X114808000Y-90806000D01*
X114808000Y-88292095D01*
X115607001Y-88292095D01*
X115607338Y-88298614D01*
X115617257Y-88394206D01*
X115620149Y-88407600D01*
X115671588Y-88561784D01*
X115677761Y-88574962D01*
X115763063Y-88712807D01*
X115772099Y-88724208D01*
X115886829Y-88838739D01*
X115898240Y-88847751D01*
X116036243Y-88932816D01*
X116049424Y-88938963D01*
X116203710Y-88990138D01*
X116217086Y-88993005D01*
X116311438Y-89002672D01*
X116317854Y-89003000D01*
X116405385Y-89003000D01*
X116420624Y-88998525D01*
X116421829Y-88997135D01*
X116423500Y-88989452D01*
X116423500Y-88984884D01*
X116931500Y-88984884D01*
X116935975Y-89000123D01*
X116937365Y-89001328D01*
X116945048Y-89002999D01*
X117037095Y-89002999D01*
X117043614Y-89002662D01*
X117139206Y-88992743D01*
X117152600Y-88989851D01*
X117306784Y-88938412D01*
X117319962Y-88932239D01*
X117457807Y-88846937D01*
X117469208Y-88837901D01*
X117583739Y-88723171D01*
X117592751Y-88711760D01*
X117677816Y-88573757D01*
X117683963Y-88560576D01*
X117735138Y-88406290D01*
X117738005Y-88392914D01*
X117747672Y-88298562D01*
X117748000Y-88292146D01*
X117748000Y-87892115D01*
X117743525Y-87876876D01*
X117742135Y-87875671D01*
X117734452Y-87874000D01*
X116949615Y-87874000D01*
X116934376Y-87878475D01*
X116933171Y-87879865D01*
X116931500Y-87887548D01*
X116931500Y-88984884D01*
X116423500Y-88984884D01*
X116423500Y-87892115D01*
X116419025Y-87876876D01*
X116417635Y-87875671D01*
X116409952Y-87874000D01*
X115625116Y-87874000D01*
X115609877Y-87878475D01*
X115608672Y-87879865D01*
X115607001Y-87887548D01*
X115607001Y-88292095D01*
X114808000Y-88292095D01*
X114808000Y-85435587D01*
X114828002Y-85367466D01*
X114881658Y-85320973D01*
X114951932Y-85310869D01*
X115016512Y-85340363D01*
G37*
%TD.AperFunction*%
%TA.AperFunction,Conductor*%
G36*
X131173621Y-81933502D02*
G01*
X131220114Y-81987158D01*
X131231500Y-82039500D01*
X131231500Y-83215400D01*
X131231837Y-83218646D01*
X131231837Y-83218650D01*
X131241618Y-83312914D01*
X131242474Y-83321166D01*
X131298450Y-83488946D01*
X131391522Y-83639348D01*
X131396704Y-83644521D01*
X131396705Y-83644522D01*
X131408986Y-83656782D01*
X131443064Y-83719065D01*
X131438060Y-83789885D01*
X131395563Y-83846757D01*
X131359843Y-83865478D01*
X131216054Y-83913450D01*
X131065652Y-84006522D01*
X130940695Y-84131697D01*
X130937898Y-84136235D01*
X130880647Y-84176824D01*
X130809724Y-84180054D01*
X130748313Y-84144428D01*
X130740938Y-84135932D01*
X130732902Y-84125793D01*
X130618171Y-84011261D01*
X130606760Y-84002249D01*
X130468757Y-83917184D01*
X130455574Y-83911036D01*
X130319237Y-83865815D01*
X130260877Y-83825384D01*
X130233640Y-83759820D01*
X130246173Y-83689939D01*
X130269730Y-83657205D01*
X130283738Y-83643172D01*
X130292751Y-83631760D01*
X130377816Y-83493757D01*
X130383963Y-83480576D01*
X130435138Y-83326290D01*
X130438005Y-83312914D01*
X130447672Y-83218562D01*
X130448000Y-83212146D01*
X130448000Y-82812115D01*
X130443525Y-82796876D01*
X130442135Y-82795671D01*
X130434452Y-82794000D01*
X129249500Y-82794000D01*
X129181379Y-82773998D01*
X129134886Y-82720342D01*
X129123500Y-82668000D01*
X129123500Y-82412000D01*
X129143502Y-82343879D01*
X129197158Y-82297386D01*
X129249500Y-82286000D01*
X130429884Y-82286000D01*
X130445123Y-82281525D01*
X130446328Y-82280135D01*
X130447999Y-82272452D01*
X130447999Y-82039500D01*
X130468001Y-81971379D01*
X130521657Y-81924886D01*
X130573999Y-81913500D01*
X131105500Y-81913500D01*
X131173621Y-81933502D01*
G37*
%TD.AperFunction*%
%TD*%
M02*
