%TF.GenerationSoftware,KiCad,Pcbnew,6.0.2+dfsg-1*%
%TF.CreationDate,2024-11-06T15:41:12+05:30*%
%TF.ProjectId,opamp-hadi,6f70616d-702d-4686-9164-692e6b696361,rev?*%
%TF.SameCoordinates,Original*%
%TF.FileFunction,Copper,L2,Bot*%
%TF.FilePolarity,Positive*%
%FSLAX46Y46*%
G04 Gerber Fmt 4.6, Leading zero omitted, Abs format (unit mm)*
G04 Created by KiCad (PCBNEW 6.0.2+dfsg-1) date 2024-11-06 15:41:12*
%MOMM*%
%LPD*%
G01*
G04 APERTURE LIST*
%TA.AperFunction,ComponentPad*%
%ADD10R,1.350000X1.350000*%
%TD*%
%TA.AperFunction,ComponentPad*%
%ADD11O,1.350000X1.350000*%
%TD*%
%TA.AperFunction,ViaPad*%
%ADD12C,0.800000*%
%TD*%
%TA.AperFunction,Conductor*%
%ADD13C,0.250000*%
%TD*%
G04 APERTURE END LIST*
D10*
%TO.P,J2,1,Pin_1*%
%TO.N,Net-(R1-Pad2)*%
X118320000Y-78740000D03*
D11*
%TO.P,J2,2,Pin_2*%
%TO.N,GND*%
X120320000Y-78740000D03*
%TD*%
D10*
%TO.P,J1,1,Pin_1*%
%TO.N,Net-(U1-Pad7)*%
X127540000Y-78740000D03*
D11*
%TO.P,J1,2,Pin_2*%
%TO.N,GND*%
X129540000Y-78740000D03*
%TD*%
D12*
%TO.N,GND*%
X129377500Y-82540000D03*
%TO.N,Net-(U1-Pad7)*%
X126935000Y-83185000D03*
%TO.N,GND*%
X121985000Y-85725000D03*
%TO.N,Net-(R1-Pad2)*%
X116840000Y-80555500D03*
X116677500Y-82540000D03*
%TO.N,Net-(C1-Pad1)*%
X119380000Y-83105980D03*
X119090000Y-85080000D03*
%TO.N,GND*%
X129890000Y-85080000D03*
X127000000Y-86624500D03*
%TO.N,Net-(R1-Pad2)*%
X128508532Y-86353130D03*
X126935000Y-84355020D03*
%TD*%
D13*
%TO.N,GND*%
X129540000Y-78740000D02*
X129540000Y-82377500D01*
X129540000Y-82377500D02*
X129377500Y-82540000D01*
%TO.N,Net-(U1-Pad7)*%
X127540000Y-78740000D02*
X127540000Y-82580000D01*
X127540000Y-82580000D02*
X126935000Y-83185000D01*
%TO.N,GND*%
X120320000Y-78740000D02*
X120320000Y-84060000D01*
X120320000Y-84060000D02*
X121985000Y-85725000D01*
%TO.N,Net-(R1-Pad2)*%
X116840000Y-80555500D02*
X116840000Y-82377500D01*
X116840000Y-82377500D02*
X116677500Y-82540000D01*
%TO.N,Net-(C1-Pad1)*%
X119380000Y-83105980D02*
X119380000Y-84790000D01*
X119380000Y-84790000D02*
X119090000Y-85080000D01*
%TO.N,GND*%
X128544500Y-85080000D02*
X129890000Y-85080000D01*
X127000000Y-86624500D02*
X128544500Y-85080000D01*
%TO.N,Net-(R1-Pad2)*%
X126275489Y-85014531D02*
X126935000Y-84355020D01*
X128508532Y-86353130D02*
X127512651Y-87349011D01*
X126699897Y-87349011D02*
X126275489Y-86924603D01*
X126275489Y-86924603D02*
X126275489Y-85014531D01*
X127512651Y-87349011D02*
X126699897Y-87349011D01*
%TD*%
M02*
